<svg width="12" height="12" viewBox="0 0 12 12" fill="none" xmlns="http://www.w3.org/2000/svg">
<path d="M8.99948 0.0024968L7.44337 0C5.69512 0 4.56533 1.15914 4.56533 2.95322V4.31485H3.00073C2.86553 4.31485 2.75604 4.42446 2.75604 4.55966V6.53251C2.75604 6.66771 2.86565 6.77719 3.00073 6.77719H4.56533V11.7553C4.56533 11.8905 4.67481 12 4.81002 12H6.85138C6.98658 12 7.09606 11.8904 7.09606 11.7553V6.77719H8.92545C9.06065 6.77719 9.17014 6.66771 9.17014 6.53251L9.17088 4.55966C9.17088 4.49474 9.14504 4.43257 9.09923 4.38663C9.05341 4.34069 8.99099 4.31485 8.92608 4.31485H7.09606V3.16058C7.09606 2.60579 7.22827 2.32415 7.95096 2.32415L8.99923 2.32377C9.13431 2.32377 9.24379 2.21416 9.24379 2.07909V0.247183C9.24379 0.112231 9.13443 0.00274648 8.99948 0.0024968Z" fill="#999EA3"/>
</svg>
