<svg width="12" height="16" viewBox="0 0 12 16" fill="none" xmlns="http://www.w3.org/2000/svg">
<path d="M3.41588 15.9998C1.63729 10.1391 5.3954 7.9992 5.3954 7.9992C5.13246 11.1265 6.90964 13.5629 6.90964 13.5629C7.56326 13.3657 8.81084 12.444 8.81084 12.444C8.81084 13.5629 8.15255 15.9984 8.15255 15.9984C8.15255 15.9984 10.457 14.2165 11.1824 11.2571C11.9069 8.29757 9.80246 5.32643 9.80246 5.32643C9.92927 7.4211 9.22063 9.48127 7.83227 11.0552C7.90173 10.975 7.96001 10.886 8.00476 10.7895C8.25418 10.2906 8.65466 8.99409 8.42015 5.99171C8.09008 1.77719 4.27137 0 4.27137 0C4.60051 2.56787 3.61355 3.15949 1.30162 8.0337C-1.0103 12.907 3.41588 15.9998 3.41588 15.9998Z" fill="white"/>
</svg>
