<svg width="10" height="10" viewBox="0 0 10 10" fill="none" xmlns="http://www.w3.org/2000/svg">
<path fill-rule="evenodd" clip-rule="evenodd" d="M8.051 4.33308H9.03555V8.56744C9.03555 8.82595 8.82595 9.03555 8.56744 9.03555H1.43248C1.17397 9.03555 0.964365 8.82595 0.964365 8.56744V4.33308H1.94891C1.90214 4.54805 1.87678 4.77098 1.87678 4.99992C1.87678 6.72481 3.27504 8.12306 4.99992 8.12306C6.72481 8.12306 8.12306 6.72481 8.12306 4.99992C8.12306 4.77098 8.09777 4.54799 8.051 4.33308ZM9.99998 1.26111C9.99998 0.564633 9.43534 0 8.73887 0H1.26111C0.564633 0 0 0.564633 0 1.26111V8.73887C0 9.43534 0.564633 9.99998 1.26111 9.99998H8.73887C9.43534 9.99998 9.99998 9.43534 9.99998 8.73887V1.26111ZM2.75734 4.75734C2.75734 3.65277 3.65277 2.75734 4.75734 2.75734H5.24266C6.34723 2.75734 7.24266 3.65277 7.24266 4.75734V5.24266C7.24266 6.34723 6.34723 7.24266 5.24266 7.24266H4.75734C3.65277 7.24266 2.75734 6.34723 2.75734 5.24266V4.75734ZM7.74266 1.07534C7.46652 1.07534 7.24266 1.2992 7.24266 1.57534V2.25734C7.24266 2.53348 7.46652 2.75734 7.74266 2.75734H8.42466C8.7008 2.75734 8.92466 2.53348 8.92466 2.25734V1.57534C8.92466 1.2992 8.7008 1.07534 8.42466 1.07534H7.74266Z" fill="#999EA3"/>
</svg>
