<svg width="16" height="18" viewBox="0 0 16 18" fill="none" xmlns="http://www.w3.org/2000/svg">
<path d="M12.1531 8.43736C12.1572 8.38089 12.1612 8.3204 12.1694 8.26393C12.1694 8.2599 12.1734 8.25587 12.1734 8.25587L12.1775 8.24377V7.96144L12.1734 7.90498C12.1694 7.86868 12.1694 7.83238 12.1653 7.80012C12.1287 7.23951 11.9862 6.71116 11.746 6.22719C11.2167 5.1584 10.3739 4.4042 9.24612 3.99685C8.86749 3.85972 8.46035 3.77906 8.03285 3.75486H8.02878C8.02471 3.75486 8.02064 3.75082 8.01657 3.75082H8.00842H7.57279L7.52393 3.75486C7.49543 3.75889 7.471 3.75889 7.4425 3.76292C6.86844 3.80729 6.3188 3.95652 5.81395 4.21464C4.97525 4.63812 4.32383 5.27536 3.88412 6.10216C3.66019 6.52564 3.50955 6.98542 3.44034 7.4694C3.42812 7.5541 3.41998 7.64283 3.41184 7.72752C3.40777 7.76785 3.40369 7.80819 3.39962 7.84852C3.39962 7.85255 3.39962 7.85658 3.39555 7.86465C3.39555 7.86868 3.39555 7.87272 3.39148 7.87675V8.31233L3.39555 8.35669C3.39962 8.38493 3.39962 8.40913 3.40369 8.43736C3.47698 9.34885 3.8149 10.1716 4.41747 10.8855C4.51518 11.0024 4.61696 11.1234 4.71468 11.2364C4.84089 11.3816 4.97117 11.5348 5.09332 11.6841C5.30503 11.9381 5.46381 12.1882 5.58188 12.4423C5.67145 12.6359 5.72031 13.0755 5.71624 13.3054C5.71624 13.4264 5.71624 13.5474 5.71624 13.6643C5.71624 13.7248 5.71624 13.7853 5.71624 13.8458C5.71624 14.1483 5.95645 14.4105 6.25773 14.4427H6.2618C6.26587 14.4427 6.26995 14.4468 6.27402 14.4468L6.28216 14.4508H9.23798L9.24612 14.4468C9.26241 14.4427 9.2787 14.4387 9.29498 14.4347C9.33569 14.4266 9.37641 14.4185 9.41712 14.4024C9.65733 14.3096 9.81205 14.0878 9.81205 13.8337C9.81205 13.745 9.81205 13.6563 9.81205 13.5716C9.81205 13.4667 9.81205 13.3618 9.81205 13.253C9.81205 13.019 9.89754 12.5713 10.0034 12.3697C10.1703 12.047 10.3983 11.7607 10.5978 11.5187C10.6752 11.4259 10.7566 11.3332 10.834 11.2404C10.9765 11.075 11.119 10.9057 11.2574 10.7322C11.7012 10.1676 11.9862 9.52228 12.1002 8.82051C12.1327 8.69548 12.1449 8.56239 12.1531 8.43736ZM10.264 10.0103C10.1378 10.1716 10.0034 10.3289 9.87312 10.4781C9.79983 10.5628 9.72655 10.6475 9.65733 10.7322C9.44155 10.9903 9.1647 11.3412 8.94891 11.7405C8.78199 12.0511 8.68427 12.3052 8.63542 12.5552C8.61506 12.656 8.60692 12.8537 8.59877 13.0271C8.5947 13.0997 8.59063 13.1683 8.59063 13.2207C8.25271 13.2207 7.91071 13.2207 7.57279 13.2207C7.46693 13.2207 7.36108 13.2207 7.25115 13.2207H6.96208C6.96208 13.1683 6.95801 13.0957 6.95801 13.0271C6.95801 12.9505 6.95394 12.8819 6.95394 12.8577C6.94172 12.535 6.84808 12.2084 6.66487 11.8292C6.50201 11.4945 6.27809 11.1597 5.95645 10.7806C5.87095 10.6798 5.78138 10.5749 5.69588 10.4741C5.5656 10.3249 5.43531 10.1716 5.3091 10.0143C4.96303 9.58278 4.74725 9.0988 4.67396 8.57449C4.52739 7.542 4.8246 6.6426 5.55338 5.89647C6.00531 5.43669 6.55087 5.1463 7.18193 5.03337C8.18349 4.85188 9.0792 5.08983 9.84869 5.74321C10.3698 6.18685 10.7077 6.74746 10.8543 7.40487C11.062 8.36476 10.8625 9.23996 10.264 10.0103Z" fill="#902156"/>
<path d="M9.14432 14.6968H6.43278C6.22107 14.6968 6.05414 14.8662 6.05414 15.0719C6.05414 15.2816 6.22514 15.447 6.43278 15.447H9.14432C9.35603 15.447 9.52296 15.2776 9.52296 15.0719C9.52296 14.8662 9.35196 14.6968 9.14432 14.6968Z" fill="#902156"/>
<path d="M9.14432 15.7172H6.43278C6.22107 15.7172 6.05414 15.8866 6.05414 16.0923C6.05414 16.302 6.22514 16.4674 6.43278 16.4674H9.14432C9.35603 16.4674 9.52296 16.298 9.52296 16.0923C9.52296 15.8866 9.35196 15.7172 9.14432 15.7172Z" fill="#902156"/>
<path d="M8.26495 16.7215H7.30817C7.09646 16.7215 6.92953 16.8909 6.92953 17.0966C6.92953 17.3023 7.10053 17.4717 7.30817 17.4717H8.26495C8.47666 17.4717 8.64359 17.3023 8.64359 17.0966C8.64359 16.8909 8.47666 16.7215 8.26495 16.7215Z" fill="#902156"/>
<path d="M7.7845 2.89983C8.02471 2.89983 8.22421 2.70624 8.22421 2.46425V0.959881C8.22421 0.721924 8.02878 0.5243 7.7845 0.5243C7.54429 0.5243 7.34479 0.717891 7.34479 0.959881V2.46828C7.34886 2.70624 7.54429 2.89983 7.7845 2.89983Z" fill="#902156"/>
<path d="M11.9373 4.35176L13.0122 3.28701C13.1832 3.11761 13.1832 2.84336 13.0122 2.67397C12.8412 2.50457 12.5643 2.50457 12.3933 2.67397L11.3185 3.73872C11.1475 3.90811 11.1475 4.18237 11.3185 4.35176C11.4895 4.52116 11.7663 4.52116 11.9373 4.35176Z" fill="#902156"/>
<path d="M3.86375 11.5469C3.69276 11.3775 3.4159 11.3775 3.2449 11.5469L2.17006 12.6117C1.99906 12.7811 1.99906 13.0553 2.17006 13.2247C2.34106 13.3941 2.61791 13.3941 2.78891 13.2247L3.86375 12.16C4.03475 11.9906 4.03475 11.7163 3.86375 11.5469Z" fill="#902156"/>
<path d="M3.63575 4.35178C3.80675 4.52117 4.08361 4.52117 4.2546 4.35178C4.4256 4.18239 4.4256 3.90813 4.2546 3.73874L3.17569 2.66995C3.00469 2.50056 2.72784 2.50056 2.55684 2.66995C2.38584 2.83935 2.38584 3.1136 2.55684 3.28299L3.63575 4.35178Z" fill="#902156"/>
<path d="M12.3607 11.7083C12.1897 11.5389 11.9129 11.5389 11.7419 11.7083C11.5709 11.8777 11.5709 12.1519 11.7419 12.3213L12.8167 13.3861C12.9877 13.5554 13.2646 13.5554 13.4356 13.3861C13.6066 13.2167 13.6066 12.9424 13.4356 12.773L12.3607 11.7083Z" fill="#902156"/>
<path d="M14.8728 7.51376H13.3501C13.1099 7.51376 12.9104 7.70736 12.9104 7.94934C12.9104 8.1873 13.1058 8.38493 13.3501 8.38493H14.8728C15.113 8.38493 15.3125 8.19133 15.3125 7.94934C15.3125 7.70736 15.1171 7.51376 14.8728 7.51376Z" fill="#902156"/>
<path d="M2.65863 7.94934C2.65863 7.71139 2.46321 7.51376 2.21892 7.51376H0.700299C0.460087 7.51376 0.26059 7.70736 0.26059 7.94934C0.26059 8.1873 0.456016 8.38493 0.700299 8.38493H2.223C2.46321 8.38089 2.65863 8.1873 2.65863 7.94934Z" fill="#902156"/>
</svg>
