<svg width="12" height="16" viewBox="0 0 12 16" fill="none" xmlns="http://www.w3.org/2000/svg">
<path d="M3.41582 15.9998C1.63723 10.1391 5.39534 7.9992 5.39534 7.9992C5.13239 11.1265 6.90958 13.5629 6.90958 13.5629C7.5632 13.3657 8.81078 12.444 8.81078 12.444C8.81078 13.5629 8.15249 15.9984 8.15249 15.9984C8.15249 15.9984 10.457 14.2165 11.1824 11.2571C11.9069 8.29757 9.8024 5.32643 9.8024 5.32643C9.92921 7.4211 9.22057 9.48127 7.83221 11.0552C7.90167 10.975 7.95995 10.886 8.0047 10.7895C8.25412 10.2906 8.6546 8.99409 8.42009 5.99171C8.09002 1.77719 4.27131 0 4.27131 0C4.60045 2.56787 3.61349 3.15949 1.30156 8.0337C-1.01036 12.907 3.41582 15.9998 3.41582 15.9998Z" fill="#ADADAE"/>
</svg>
