<svg width="156" height="53" viewBox="0 0 156 53" fill="none" xmlns="http://www.w3.org/2000/svg">
<path d="M28.3101 19.1729C28.3101 19.1729 36.5327 26.0594 33.2086 34.5351C29.8846 43.0108 19.5626 52.1929 19.5626 52.1929C19.5626 52.1929 10.4653 44.2469 15.5388 34.8883C20.6123 25.5296 28.3101 19.1729 28.3101 19.1729Z" fill="white"/>
<path d="M19.2733 0C19.2733 0 32.4867 11.9415 18.7715 25.93C18.7715 25.93 8.06694 34.8008 12.0811 43.6716C12.0811 43.6716 -8.34113 31.9178 3.91892 15.2339C4.11963 14.9609 4.33707 14.688 4.57123 14.4321C6.21037 12.5727 13.252 4.64011 19.2733 0Z" fill="white"/>
<path d="M47.04 20.1852C45.504 20.1852 44.472 20.7852 43.92 21.6252V21.1212C43.92 20.7372 43.704 20.5212 43.32 20.5212H40.92C40.536 20.5212 40.32 20.7372 40.32 21.1212V31.9212C40.32 32.3052 40.536 32.5212 40.92 32.5212H43.32C43.704 32.5212 43.92 32.3052 43.92 31.9212V25.5132C43.92 24.0972 44.592 23.4972 45.672 23.4972C46.584 23.4972 47.28 24.0252 47.28 25.2252V31.9212C47.28 32.3052 47.496 32.5212 47.88 32.5212H50.28C50.664 32.5212 50.88 32.3052 50.88 31.9212V24.9132C50.88 21.9132 49.272 20.1852 47.04 20.1852ZM58.1786 20.1852C55.7306 20.1852 53.5226 21.5052 53.2106 24.0972C53.1866 24.5052 53.4266 24.7212 53.8106 24.7212H56.1626C56.5226 24.7212 56.6426 24.5292 56.7866 24.1932C56.9786 23.7852 57.4346 23.4972 58.1786 23.4972C59.1866 23.4972 59.6666 24.0252 59.6666 25.2012V26.3052C59.0186 25.8012 58.0586 25.3692 56.5706 25.3692C54.4586 25.3692 52.6106 26.6172 52.6106 29.1132C52.6106 31.6092 54.4586 32.8572 56.5706 32.8572C58.0586 32.8572 59.0186 32.3532 59.6666 31.5852V31.9212C59.6666 32.3052 59.8826 32.5212 60.2666 32.5212H62.5706C62.9546 32.5212 63.1706 32.3052 63.1706 31.9212V24.9612C63.1706 21.7212 60.8186 20.1852 58.1786 20.1852ZM57.8426 30.3132C56.7386 30.3132 56.2106 29.8092 56.2106 29.1132C56.2106 28.4172 56.7386 27.9132 57.8426 27.9132C59.0186 27.9132 59.6666 28.3692 59.6666 29.1132C59.6666 29.8092 59.0186 30.3132 57.8426 30.3132ZM71.5879 20.3292C70.3879 20.5212 69.4279 21.2172 69.0919 22.4412V21.1212C69.0919 20.7372 68.8759 20.5212 68.4919 20.5212H66.0919C65.7079 20.5212 65.4919 20.7372 65.4919 21.1212V31.9212C65.4919 32.3052 65.7079 32.5212 66.0919 32.5212H68.4919C68.8759 32.5212 69.0919 32.3052 69.0919 31.9212V26.8572C69.0919 24.9372 70.3879 24.2652 71.7319 24.3132C72.0439 24.3132 72.2119 24.1212 72.2119 23.7372V20.9052C72.2119 20.5212 71.9959 20.2572 71.5879 20.3292ZM85.2429 15.7212H82.8429C82.4589 15.7212 82.2429 15.9372 82.2429 16.3212V21.6492C81.4269 20.7372 80.2509 20.1852 78.6669 20.1852C75.5229 20.1852 72.9309 22.9452 72.9309 26.5212C72.9309 30.0972 75.5229 32.8572 78.6669 32.8572C80.2509 32.8572 81.4269 32.3292 82.2429 31.4172V31.9212C82.2429 32.3052 82.4589 32.5212 82.8429 32.5212H85.2429C85.6269 32.5212 85.8429 32.3052 85.8429 31.9212V16.3212C85.8429 15.9372 85.6269 15.7212 85.2429 15.7212ZM79.3869 29.4492C77.7309 29.4492 76.5309 28.3212 76.5309 26.5212C76.5309 24.7212 77.7309 23.5932 79.3869 23.5932C81.0429 23.5932 82.2429 24.7212 82.2429 26.5212C82.2429 28.3212 81.0429 29.4492 79.3869 29.4492ZM94.3161 20.1852C90.5241 20.1852 87.8841 22.9452 87.8841 26.5212C87.8841 30.0972 90.4281 32.8572 94.4121 32.8572C96.8601 32.8572 98.8281 31.7772 99.7641 29.6892C99.9561 29.3052 99.7161 29.0172 99.2841 29.0172L96.9801 29.0412C96.6681 29.0412 96.4761 29.1612 96.2361 29.3532C95.8041 29.7132 95.1321 29.9532 94.4601 29.9532C93.1881 29.9532 92.0841 29.4012 91.6521 27.9612H96.7401H99.6681C100.028 27.9612 100.268 27.7932 100.316 27.4092C100.34 27.1212 100.364 26.8332 100.364 26.5212C100.364 22.8972 97.8201 20.1852 94.3161 20.1852ZM91.6281 25.2252C91.9881 24.0492 92.9241 23.3772 94.2921 23.3772C95.3481 23.3772 96.4041 23.8812 96.7641 25.2252H91.6281ZM109.535 20.1852C107.927 20.1852 106.751 20.7372 105.959 21.6492V21.1212C105.959 20.7372 105.743 20.5212 105.359 20.5212H102.959C102.575 20.5212 102.359 20.7372 102.359 21.1212V36.7212C102.359 37.1052 102.575 37.3212 102.959 37.3212H105.359C105.743 37.3212 105.959 37.1052 105.959 36.7212V31.4172C106.751 32.3292 107.927 32.8572 109.535 32.8572C112.679 32.8572 115.271 30.0972 115.271 26.5212C115.271 22.9452 112.679 20.1852 109.535 20.1852ZM108.815 29.4492C107.159 29.4492 105.959 28.3212 105.959 26.5212C105.959 24.7212 107.159 23.5932 108.815 23.5932C110.471 23.5932 111.671 24.7212 111.671 26.5212C111.671 28.3212 110.471 29.4492 108.815 29.4492ZM117.306 32.5212H119.946C120.33 32.5212 120.546 32.3052 120.546 31.9212V29.2812C120.546 28.8972 120.33 28.6812 119.946 28.6812H117.306C116.922 28.6812 116.706 28.8972 116.706 29.2812V31.9212C116.706 32.3052 116.922 32.5212 117.306 32.5212ZM123.912 32.5212H126.312C126.696 32.5212 126.912 32.3052 126.912 31.9212V15.8412C126.912 15.4572 126.696 15.2412 126.312 15.2412H123.912C123.528 15.2412 123.312 15.4572 123.312 15.8412V31.9212C123.312 32.3052 123.528 32.5212 123.912 32.5212ZM130.147 19.0812H132.547C132.931 19.0812 133.147 18.8652 133.147 18.4812V16.3212C133.147 15.9372 132.931 15.7212 132.547 15.7212H130.147C129.763 15.7212 129.547 15.9372 129.547 16.3212V18.4812C129.547 18.8652 129.763 19.0812 130.147 19.0812ZM130.147 32.5212H132.547C132.931 32.5212 133.147 32.3052 133.147 31.9212V21.1212C133.147 20.7372 132.931 20.5212 132.547 20.5212H130.147C129.763 20.5212 129.547 20.7372 129.547 21.1212V31.9212C129.547 32.3052 129.763 32.5212 130.147 32.5212ZM141.277 18.8172C141.685 18.8172 141.901 18.6252 141.901 18.2412V15.9852C141.901 15.6012 141.685 15.3612 141.301 15.3612C137.725 15.3612 136.069 17.3292 136.069 20.5212H135.061C134.677 20.5212 134.461 20.7372 134.461 21.1212V23.3772C134.461 23.7612 134.677 23.9772 135.061 23.9772H136.069V31.9212C136.069 32.3052 136.285 32.5212 136.669 32.5212H139.069C139.453 32.5212 139.669 32.3052 139.669 31.9212V23.9772H141.301C141.685 23.9772 141.901 23.7612 141.901 23.3772V21.1212C141.901 20.7372 141.685 20.5212 141.301 20.5212H139.669C139.669 19.3692 140.293 18.8172 141.277 18.8172ZM148.925 20.1852C145.133 20.1852 142.493 22.9452 142.493 26.5212C142.493 30.0972 145.037 32.8572 149.021 32.8572C151.469 32.8572 153.437 31.7772 154.373 29.6892C154.565 29.3052 154.325 29.0172 153.893 29.0172L151.589 29.0412C151.277 29.0412 151.085 29.1612 150.845 29.3532C150.413 29.7132 149.741 29.9532 149.069 29.9532C147.797 29.9532 146.693 29.4012 146.261 27.9612H151.349H154.277C154.637 27.9612 154.877 27.7932 154.925 27.4092C154.949 27.1212 154.973 26.8332 154.973 26.5212C154.973 22.8972 152.429 20.1852 148.925 20.1852ZM146.237 25.2252C146.597 24.0492 147.533 23.3772 148.901 23.3772C149.957 23.3772 151.013 23.8812 151.373 25.2252H146.237Z" fill="white"/>
</svg>
