<?xml version="1.0" encoding="UTF-8" ?>
<!DOCTYPE svg PUBLIC "-//W3C//DTD SVG 1.1//EN"
  "http://www.w3.org/Graphics/SVG/1.1/DTD/svg11.dtd">
<svg
  xmlns="http://www.w3.org/2000/svg"
  xmlns:xlink="http://www.w3.org/1999/xlink"
><symbol id="icon-arrow_left" viewBox="0 0 5 11">
    <path
      d="M.132 5.857l4.083 4.498a.432.432 0 0 0 .649 0 .538.538 0 0 0 0-.715L1.104 5.5l3.76-4.14a.538.538 0 0 0 0-.715.432.432 0 0 0-.649 0L.132 5.143a.546.546 0 0 0 0 .714z"
    />
</symbol><symbol id="icon-arrow_right" viewBox="0 0 4 9">
    <path
      d="M3.867 3.642L-.217-.856a.432.432 0 0 0-.648 0 .538.538 0 0 0 0 .715l3.76 4.14-3.76 4.14a.538.538 0 0 0 0 .715.432.432 0 0 0 .648 0l4.084-4.498a.546.546 0 0 0 0-.714z"
    />
</symbol><symbol id="icon-fb" viewBox="0 0 12 12">
    <path
      d="M9 .002L7.443 0C5.695 0 4.565 1.16 4.565 2.953v1.362H3.001a.245.245 0 0 0-.245.245v1.973c0 .135.11.244.245.244h1.564v4.978c0 .135.11.245.245.245h2.041c.136 0 .245-.11.245-.245V6.777h1.83c.135 0 .244-.11.244-.244V4.56a.245.245 0 0 0-.244-.245h-1.83V3.16c0-.555.132-.837.855-.837h1.048c.135 0 .245-.11.245-.245V.247A.245.245 0 0 0 9 .002z"
    />
</symbol><symbol id="icon-inst" viewBox="0 0 10 10">
    <path
      fill-rule="evenodd"
      clip-rule="evenodd"
      d="M8.051 4.333h.985v4.234c0 .259-.21.469-.469.469H1.432a.468.468 0 0 1-.468-.469V4.333h.985a3.123 3.123 0 1 0 6.102 0zM10 1.261C10 .565 9.435 0 8.739 0H1.26C.565 0 0 .565 0 1.261V8.74C0 9.435.565 10 1.261 10H8.74C9.435 10 10 9.435 10 8.739V1.26zM2.757 4.757a2 2 0 0 1 2-2h.486a2 2 0 0 1 2 2v.486a2 2 0 0 1-2 2h-.486a2 2 0 0 1-2-2v-.486zm4.986-3.682a.5.5 0 0 0-.5.5v.682a.5.5 0 0 0 .5.5h.682a.5.5 0 0 0 .5-.5v-.682a.5.5 0 0 0-.5-.5h-.682z"
    />
</symbol><symbol id="icon-telegram" viewBox="0 0 10 10">
    <path
      d="M.177 4.822l2.304.86.892 2.868a.271.271 0 0 0 .43.13l1.285-1.048a.383.383 0 0 1 .467-.013l2.317 1.682c.16.116.385.029.425-.164L9.994.974A.272.272 0 0 0 9.63.665L.174 4.313a.272.272 0 0 0 .003.509zm3.052.402L7.732 2.45c.081-.05.164.06.095.124L4.11 6.03a.77.77 0 0 0-.238.461l-.127.938c-.017.125-.193.138-.227.017L3.03 5.734a.453.453 0 0 1 .198-.51z"
    />
</symbol><symbol id="icon-twitter" viewBox="0 0 10 10">
    <path
      d="M10 1.9a4.274 4.274 0 0 1-1.181.323c.425-.254.75-.652.902-1.133a4.097 4.097 0 0 1-1.3.496 2.05 2.05 0 0 0-3.546 1.402c0 .163.013.319.047.468A5.803 5.803 0 0 1 .696 1.31a2.053 2.053 0 0 0 .63 2.74A2.025 2.025 0 0 1 .4 3.8v.022c0 .996.71 1.824 1.643 2.015a2.046 2.046 0 0 1-.538.067c-.131 0-.264-.007-.388-.035a2.07 2.07 0 0 0 1.916 1.428A4.12 4.12 0 0 1 0 8.142c.908.586 1.984.92 3.145.92 3.773 0 5.835-3.124 5.835-5.833 0-.09-.003-.178-.008-.265A4.09 4.09 0 0 0 10 1.899z"
    />
</symbol><symbol id="icon-vk" viewBox="0 0 12 8">
    <path
      d="M11.936 6.76a.81.81 0 0 0-.04-.078c-.209-.375-.606-.835-1.194-1.381l-.012-.013-.006-.006-.006-.006h-.007a7.177 7.177 0 0 1-.506-.512c-.13-.167-.158-.336-.087-.507.05-.129.237-.401.562-.818.17-.22.306-.398.406-.531.72-.958 1.033-1.57.937-1.837l-.037-.062c-.025-.038-.09-.072-.194-.103a.983.983 0 0 0-.4-.016L9.553.902a.233.233 0 0 0-.125.004l-.081.018-.032.016-.024.019a.278.278 0 0 0-.07.065.429.429 0 0 0-.062.11c-.195.504-.418.972-.668 1.406-.154.258-.296.482-.425.671-.13.19-.237.33-.325.419-.087.09-.166.161-.237.215-.071.054-.125.077-.163.069a4.601 4.601 0 0 1-.106-.025.416.416 0 0 1-.14-.153.685.685 0 0 1-.072-.244 2.686 2.686 0 0 1-.02-.553 9.28 9.28 0 0 0 .007-.262c0-.158.003-.33.01-.516.006-.185.01-.332.015-.44.004-.108.006-.223.006-.344 0-.12-.007-.215-.022-.284a.973.973 0 0 0-.065-.2.337.337 0 0 0-.128-.15.722.722 0 0 0-.21-.084 4.158 4.158 0 0 0-.843-.081C4.998.569 4.501.619 4.28.728a.842.842 0 0 0-.238.187c-.075.092-.085.142-.03.15.25.037.426.127.53.268l.038.076c.029.054.058.15.087.287.03.137.048.29.056.456.021.304.021.564 0 .78-.02.218-.04.386-.059.507a1.014 1.014 0 0 1-.16.431.107.107 0 0 1-.03.031.468.468 0 0 1-.17.032c-.058 0-.128-.03-.212-.088a1.5 1.5 0 0 1-.259-.24 3.214 3.214 0 0 1-.303-.428 7.47 7.47 0 0 1-.35-.65l-.1-.181a15.575 15.575 0 0 1-.256-.51 9.818 9.818 0 0 1-.287-.646.412.412 0 0 0-.15-.2L2.356.97a.663.663 0 0 0-.244-.094L.4.89c-.175 0-.294.04-.356.118l-.025.038a.202.202 0 0 0-.019.1c0 .046.012.102.038.169.25.587.521 1.153.815 1.7.293.545.549.984.765 1.317.217.334.437.648.662.944.225.295.374.485.447.568.073.084.13.146.172.188l.156.15c.1.1.247.22.44.359.194.14.409.277.644.412.236.136.51.246.822.331.312.086.616.12.912.104h.719a.498.498 0 0 0 .33-.138l.026-.031a.414.414 0 0 0 .046-.116.635.635 0 0 0 .022-.172c-.004-.179.01-.34.04-.484.032-.143.067-.252.107-.325a.799.799 0 0 1 .24-.274.408.408 0 0 1 .05-.022c.1-.034.218-.001.354.097.135.098.262.218.38.362.12.144.262.305.429.484.167.18.312.313.437.4l.125.075c.084.05.192.096.325.138a.7.7 0 0 0 .35.03l1.6-.024a.725.725 0 0 0 .368-.078c.087-.052.14-.11.156-.172a.483.483 0 0 0 .003-.213.786.786 0 0 0-.044-.165z"
    />
</symbol></svg>
