<svg width="10" height="10" viewBox="0 0 10 10" fill="none" xmlns="http://www.w3.org/2000/svg">
<path d="M0.17663 4.82154L2.48083 5.68154L3.3727 8.54978C3.42976 8.73347 3.6544 8.80137 3.8035 8.67947L5.0879 7.63241C5.22253 7.52271 5.4143 7.51724 5.555 7.61938L7.8716 9.30127C8.0311 9.41721 8.25706 9.32981 8.29706 9.13707L9.9941 0.974044C10.0378 0.763511 9.8309 0.587877 9.63043 0.665411L0.17393 4.31344C-0.0594372 4.40344 -0.0574038 4.73384 0.17663 4.82154ZM3.22896 5.22374L7.73223 2.45018C7.81316 2.40048 7.89643 2.50991 7.82693 2.57438L4.11043 6.02904C3.9798 6.15064 3.89553 6.31338 3.87166 6.49001L3.74506 7.42821C3.7283 7.55348 3.55233 7.56591 3.51776 7.44468L3.03086 5.73384C2.9751 5.53871 3.05636 5.33028 3.22896 5.22374Z" fill="#999EA3"/>
</svg>
